<svg width="25" height="24" viewBox="0 0 25 24" fill="none" xmlns="http://www.w3.org/2000/svg">
<path d="M9.9284 6.42859C9.9284 6.82255 10.006 7.21266 10.1568 7.57664C10.3075 7.94062 10.5285 8.27133 10.8071 8.54991C11.0857 8.82849 11.4164 9.04946 11.7803 9.20023C12.1443 9.35099 12.5344 9.42859 12.9284 9.42859C13.3224 9.42859 13.7125 9.35099 14.0764 9.20023C14.4404 9.04946 14.7711 8.82849 15.0497 8.54991C15.3283 8.27133 15.5493 7.94062 15.7 7.57664C15.8508 7.21266 15.9284 6.82255 15.9284 6.42859C15.9284 5.63294 15.6123 4.86988 15.0497 4.30727C14.4871 3.74466 13.724 3.42859 12.9284 3.42859C12.1327 3.42859 11.3697 3.74466 10.8071 4.30727C10.2445 4.86988 9.9284 5.63294 9.9284 6.42859ZM13.7855 10.2857C14.3539 10.2857 14.8989 10.5115 15.3008 10.9134C15.7026 11.3152 15.9284 11.8603 15.9284 12.4286V16.7143C15.9284 16.9957 15.873 17.2744 15.7653 17.5343C15.6576 17.7943 15.4998 18.0306 15.3008 18.2295C15.1018 18.4285 14.8656 18.5864 14.6056 18.694C14.3456 18.8017 14.0669 18.8572 13.7855 18.8572H6.9284C6.64699 18.8572 6.36834 18.8017 6.10836 18.694C5.84838 18.5864 5.61215 18.4285 5.41317 18.2295C5.21419 18.0306 5.05634 17.7943 4.94866 17.5343C4.84097 17.2744 4.78554 16.9957 4.78554 16.7143V12.4286C4.78554 11.8603 5.0113 11.3152 5.41317 10.9134C5.81503 10.5115 6.36008 10.2857 6.9284 10.2857H13.7855ZM20.1738 11.0254V18.162C20.1737 18.2891 20.136 18.4133 20.0653 18.5189C19.9947 18.6245 19.8943 18.7068 19.7769 18.7554C19.6595 18.804 19.5303 18.8167 19.4057 18.792C19.2811 18.7672 19.1666 18.7061 19.0767 18.6163L16.9604 16.5009C16.8398 16.3804 16.772 16.217 16.7718 16.0466V13.1246C16.7719 13.0398 16.7888 12.9558 16.8214 12.8776C16.8541 12.7993 16.9019 12.7283 16.9621 12.6686L19.0784 10.5686C19.1685 10.4792 19.2831 10.4186 19.4077 10.3942C19.5323 10.3699 19.6613 10.383 19.7784 10.4318C19.8956 10.4807 19.9956 10.5631 20.066 10.6688C20.1364 10.7744 20.1739 10.8985 20.1738 11.0254ZM6.9284 9.42859C6.36008 9.42859 5.81503 9.20282 5.41317 8.80096C5.0113 8.3991 4.78554 7.85405 4.78554 7.28573C4.78554 6.71741 5.0113 6.17237 5.41317 5.7705C5.81503 5.36864 6.36008 5.14287 6.9284 5.14287C7.49672 5.14287 8.04176 5.36864 8.44363 5.7705C8.84549 6.17237 9.07126 6.71741 9.07126 7.28573C9.07126 7.85405 8.84549 8.3991 8.44363 8.80096C8.04176 9.20282 7.49672 9.42859 6.9284 9.42859Z" fill="#92929D"/>
</svg>
