<svg width="24" height="24" viewBox="0 0 24 24" fill="none" xmlns="http://www.w3.org/2000/svg">
<path fill-rule="evenodd" clip-rule="evenodd" d="M7.24972 5.46092V6.88092L5.55572 7.01892C4.97376 7.06576 4.42429 7.30638 3.99519 7.7023C3.5661 8.09823 3.28214 8.62659 3.18872 9.20292C3.14772 9.46092 3.10872 9.71892 3.07472 9.97792C3.06663 10.0405 3.07864 10.1041 3.10901 10.1595C3.13938 10.2148 3.18656 10.2591 3.24372 10.2859L3.32072 10.3219C8.74972 12.8919 15.2507 12.8919 20.6787 10.3219L20.7557 10.2859C20.8127 10.259 20.8597 10.2146 20.8899 10.1593C20.92 10.1039 20.9319 10.0404 20.9237 9.97792C20.8898 9.71905 20.8522 9.46069 20.8107 9.20292C20.7173 8.62659 20.4334 8.09823 20.0043 7.7023C19.5752 7.30638 19.0257 7.06576 18.4437 7.01892L16.7497 6.88192V5.46192C16.7498 5.04278 16.5995 4.63751 16.326 4.31984C16.0526 4.00217 15.6742 3.7932 15.2597 3.73092L14.0397 3.54792C12.6873 3.34503 11.3122 3.34503 9.95972 3.54792L8.73972 3.73092C8.3254 3.79317 7.94715 4.002 7.67373 4.31946C7.40031 4.63693 7.24986 5.04195 7.24972 5.46092ZM13.8167 5.03092C12.6121 4.85025 11.3873 4.85025 10.1827 5.03092L8.96272 5.21393C8.90353 5.22278 8.84948 5.25258 8.8104 5.29791C8.77131 5.34323 8.74978 5.40107 8.74972 5.46092V6.77592C10.9146 6.65191 13.0848 6.65191 15.2497 6.77592V5.46092C15.2497 5.40107 15.2281 5.34323 15.1891 5.29791C15.15 5.25258 15.0959 5.22278 15.0367 5.21393L13.8167 5.03092Z" fill="#333030"/>
<path d="M21.118 12.0701C21.116 12.0377 21.1062 12.0064 21.0894 11.9787C21.0726 11.951 21.0493 11.9278 21.0216 11.911C20.9939 11.8943 20.9625 11.8846 20.9301 11.8827C20.8978 11.8808 20.8655 11.8867 20.836 11.9001C15.265 14.3671 8.73497 14.3671 3.16397 11.9001C3.13445 11.8867 3.10213 11.8808 3.0698 11.8827C3.03746 11.8846 3.00608 11.8943 2.97834 11.911C2.95059 11.9278 2.92733 11.951 2.91054 11.9787C2.89376 12.0064 2.88395 12.0377 2.88197 12.0701C2.77977 13.9846 2.88269 15.9045 3.18897 17.7971C3.28238 18.3734 3.56634 18.9018 3.99544 19.2977C4.42454 19.6936 4.974 19.9342 5.55597 19.9811L7.42797 20.1331C10.471 20.3781 13.528 20.3781 16.572 20.1331L18.444 19.9821C19.0261 19.9352 19.5757 19.6944 20.0048 19.2983C20.4339 18.9022 20.7178 18.3736 20.811 17.7971C21.117 15.9021 21.221 13.9821 21.118 12.0711V12.0701Z" fill="#333030"/>
</svg>
