<svg width="26" height="26" viewBox="0 0 26 26" fill="none" xmlns="http://www.w3.org/2000/svg">
<path d="M9.74967 5.41664C9.46236 5.41664 9.18681 5.53077 8.98364 5.73394C8.78048 5.9371 8.66634 6.21265 8.66634 6.49997C8.66634 6.78729 8.78048 7.06284 8.98364 7.266C9.18681 7.46917 9.46236 7.5833 9.74967 7.5833C10.037 7.5833 10.3125 7.46917 10.5157 7.266C10.7189 7.06284 10.833 6.78729 10.833 6.49997C10.833 6.21265 10.7189 5.9371 10.5157 5.73394C10.3125 5.53077 10.037 5.41664 9.74967 5.41664ZM6.68384 5.41664C6.90766 4.78231 7.32273 4.23302 7.87182 3.84449C8.42092 3.45596 9.07702 3.24731 9.74967 3.24731C10.4223 3.24731 11.0784 3.45596 11.6275 3.84449C12.1766 4.23302 12.5917 4.78231 12.8155 5.41664H20.583C20.8703 5.41664 21.1459 5.53077 21.349 5.73394C21.5522 5.9371 21.6663 6.21265 21.6663 6.49997C21.6663 6.78729 21.5522 7.06284 21.349 7.266C21.1459 7.46917 20.8703 7.5833 20.583 7.5833H12.8155C12.5917 8.21763 12.1766 8.76692 11.6275 9.15545C11.0784 9.54398 10.4223 9.75262 9.74967 9.75262C9.07702 9.75262 8.42092 9.54398 7.87182 9.15545C7.32273 8.76692 6.90766 8.21763 6.68384 7.5833H5.41634C5.12902 7.5833 4.85347 7.46917 4.65031 7.266C4.44714 7.06284 4.33301 6.78729 4.33301 6.49997C4.33301 6.21265 4.44714 5.9371 4.65031 5.73394C4.85347 5.53077 5.12902 5.41664 5.41634 5.41664H6.68384ZM16.2497 11.9166C15.9624 11.9166 15.6868 12.0308 15.4836 12.2339C15.2805 12.4371 15.1663 12.7127 15.1663 13C15.1663 13.2873 15.2805 13.5628 15.4836 13.766C15.6868 13.9692 15.9624 14.0833 16.2497 14.0833C16.537 14.0833 16.8125 13.9692 17.0157 13.766C17.2189 13.5628 17.333 13.2873 17.333 13C17.333 12.7127 17.2189 12.4371 17.0157 12.2339C16.8125 12.0308 16.537 11.9166 16.2497 11.9166ZM13.1838 11.9166C13.4077 11.2823 13.8227 10.733 14.3718 10.3445C14.9209 9.95596 15.577 9.74731 16.2497 9.74731C16.9223 9.74731 17.5784 9.95596 18.1275 10.3445C18.6766 10.733 19.0917 11.2823 19.3155 11.9166H20.583C20.8703 11.9166 21.1459 12.0308 21.349 12.2339C21.5522 12.4371 21.6663 12.7127 21.6663 13C21.6663 13.2873 21.5522 13.5628 21.349 13.766C21.1459 13.9692 20.8703 14.0833 20.583 14.0833H19.3155C19.0917 14.7176 18.6766 15.2669 18.1275 15.6554C17.5784 16.044 16.9223 16.2526 16.2497 16.2526C15.577 16.2526 14.9209 16.044 14.3718 15.6554C13.8227 15.2669 13.4077 14.7176 13.1838 14.0833H5.41634C5.12902 14.0833 4.85347 13.9692 4.65031 13.766C4.44714 13.5628 4.33301 13.2873 4.33301 13C4.33301 12.7127 4.44714 12.4371 4.65031 12.2339C4.85347 12.0308 5.12902 11.9166 5.41634 11.9166H13.1838ZM9.74967 18.4166C9.46236 18.4166 9.18681 18.5308 8.98364 18.7339C8.78048 18.9371 8.66634 19.2127 8.66634 19.5C8.66634 19.7873 8.78048 20.0628 8.98364 20.266C9.18681 20.4692 9.46236 20.5833 9.74967 20.5833C10.037 20.5833 10.3125 20.4692 10.5157 20.266C10.7189 20.0628 10.833 19.7873 10.833 19.5C10.833 19.2127 10.7189 18.9371 10.5157 18.7339C10.3125 18.5308 10.037 18.4166 9.74967 18.4166ZM6.68384 18.4166C6.90766 17.7823 7.32273 17.233 7.87182 16.8445C8.42092 16.456 9.07702 16.2473 9.74967 16.2473C10.4223 16.2473 11.0784 16.456 11.6275 16.8445C12.1766 17.233 12.5917 17.7823 12.8155 18.4166H20.583C20.8703 18.4166 21.1459 18.5308 21.349 18.7339C21.5522 18.9371 21.6663 19.2127 21.6663 19.5C21.6663 19.7873 21.5522 20.0628 21.349 20.266C21.1459 20.4692 20.8703 20.5833 20.583 20.5833H12.8155C12.5917 21.2176 12.1766 21.7669 11.6275 22.1554C11.0784 22.544 10.4223 22.7526 9.74967 22.7526C9.07702 22.7526 8.42092 22.544 7.87182 22.1554C7.32273 21.7669 6.90766 21.2176 6.68384 20.5833H5.41634C5.12902 20.5833 4.85347 20.4692 4.65031 20.266C4.44714 20.0628 4.33301 19.7873 4.33301 19.5C4.33301 19.2127 4.44714 18.9371 4.65031 18.7339C4.85347 18.5308 5.12902 18.4166 5.41634 18.4166H6.68384Z" fill="#343232"/>
</svg>
