<svg width="24" height="24" viewBox="0 0 24 24" fill="none" xmlns="http://www.w3.org/2000/svg">
<path fill-rule="evenodd" clip-rule="evenodd" d="M17.5 11C15.379 11 14.318 11 13.659 10.341C13 9.682 13 8.621 13 6.5C13 4.379 13 3.318 13.659 2.659C14.318 2 15.379 2 17.5 2C19.621 2 20.682 2 21.341 2.659C22 3.318 22 4.379 22 6.5C22 8.621 22 9.682 21.341 10.341C20.682 11 19.621 11 17.5 11ZM16.045 8.216C15.28 7.546 14.5 6.652 14.5 5.798C14.5 4.025 16.15 3.363 17.5 4.733C18.85 3.363 20.5 4.025 20.5 5.798C20.5 6.652 19.72 7.545 18.955 8.216C18.359 8.739 18.061 9 17.5 9C16.94 9 16.641 8.739 16.045 8.216Z" fill="#333030"/>
<path d="M21.904 16.441C21.987 15.417 21.998 14.167 22 12.698C22 12.5129 21.9265 12.3353 21.7956 12.2044C21.6647 12.0735 21.4871 12 21.302 12C21.1169 12 20.9393 12.0735 20.8084 12.2044C20.6775 12.3353 20.604 12.5129 20.604 12.698C20.603 14.175 20.592 15.356 20.513 16.328C20.429 17.36 20.271 18.091 20.006 18.648L17.373 16.278C16.9037 15.8552 16.3047 15.6043 15.6742 15.5661C15.0437 15.528 14.4189 15.7049 13.902 16.068L13.625 16.264C13.2666 16.516 12.8308 16.6335 12.3943 16.5956C11.9577 16.5577 11.5486 16.367 11.239 16.057L7.249 12.067C6.86508 11.6833 6.34967 11.4598 5.80715 11.4417C5.26462 11.4237 4.73553 11.6126 4.327 11.97L3.396 12.784V12C3.396 9.788 3.396 8.199 3.559 6.99C3.719 5.8 4.023 5.083 4.553 4.553C5.083 4.023 5.8 3.719 6.989 3.559C8.068 3.414 9.447 3.398 11.302 3.396C11.4807 3.38643 11.6488 3.30872 11.7719 3.17887C11.895 3.04902 11.9636 2.87692 11.9636 2.698C11.9636 2.51908 11.895 2.34698 11.7719 2.21713C11.6488 2.08728 11.4807 2.00957 11.302 2C9.473 2.002 7.972 2.02 6.803 2.177C5.46 2.357 4.399 2.734 3.567 3.567C2.734 4.399 2.357 5.46 2.177 6.803C2 8.116 2 9.8 2 11.947V12C2 12.49 2 12.956 2.002 13.396C2.009 15.125 2.046 16.517 2.245 17.636C2.448 18.776 2.829 19.694 3.567 20.432C4.399 21.265 5.46 21.642 6.803 21.822C8.116 22 9.8 22 11.947 22H12.053C14.201 22 15.883 22 17.197 21.823C18.541 21.643 19.601 21.266 20.433 20.433C20.7233 20.1429 20.9692 19.8117 21.163 19.45C21.608 18.625 21.808 17.63 21.904 16.441Z" fill="#333030"/>
</svg>
